<svg>
    <line stroke="blue" stroke-width="3" x1="27864" x2="27198"
          y1="83556" y2="83638" />
    <line stroke="green" stroke-width="3" x1="40266" x2="40708"
          y1="55705" y2="56407" />
    <path d="M , L 27864,83556 L 28722,83450 L 28196,82616 L 27671,81782 L 27146,80947 L 26620,80113 L 26095,79278 L 25570,78444 L 25044,77610 L 24519,76775 L 23994,75941 L 23468,75106 L 22943,74272 L 22417,73438 L 21892,72603 L 213
67,71769 L 20841,70934 L 20316,70100 L 19791,69266 L 19265,68431 L 18740,67597 L 18215,66762 L 17689,65928 L 17164,65094 L 16638,64259 L 16113,63425 L 15588,62590 L 15062,61756 L 14537,60921 L 14012,60087 L 13486,59253 L 40708,56407
 " stroke-width="3" stroke="red" fill="none" />
</svg>
