<?xml version="1.0" encoding="utf-8"?>
<!-- Generator: Adobe Illustrator 23.0.1, SVG Export Plug-In . SVG Version: 6.00 Build 0)  -->
<svg version="1.1" id="Layer_1" xmlns="http://www.w3.org/2000/svg" xmlns:xlink="http://www.w3.org/1999/xlink" x="0px" y="0px"
	 viewBox="0 0 300 300" style="enable-background:new 0 0 300 300;" xml:space="preserve">
<path d="M277.5,74.3c-3.3,0-5.9,2.7-5.9,5.9v55.4l-44.9-44.9c-4.2-4.2-11-4.2-15.1,0s-4.2,11,0,15.1l33.5,33.5H55.8l33.5-33.5
	c4.2-4.2,4.2-11,0-15.1s-11-4.2-15.1,0l-45.7,45.7V80.2c0-3.3-2.7-5.9-5.9-5.9s-5.9,2.7-5.9,5.9v139.6c0,3.3,2.7,5.9,5.9,5.9
	s5.9-2.7,5.9-5.9v-56.2l45.7,45.7c2.1,2.1,4.8,3.1,7.6,3.1s5.5-1,7.6-3.1c4.2-4.2,4.2-11,0-15.1l-33.5-33.5H245l-33.5,33.5
	c-4.2,4.2-4.2,11,0,15.1c2.1,2.1,4.8,3.1,7.6,3.1s5.5-1,7.6-3.1l44.9-44.9v55.4c0,3.3,2.7,5.9,5.9,5.9s5.9-2.7,5.9-5.9V80.2
	C283.4,76.9,280.8,74.3,277.5,74.3z"/>
</svg>
