<?xml version="1.0" encoding="utf-8"?>
<!-- Generator: Adobe Illustrator 23.0.1, SVG Export Plug-In . SVG Version: 6.00 Build 0)  -->
<svg version="1.1" id="Layer_1" xmlns="http://www.w3.org/2000/svg" xmlns:xlink="http://www.w3.org/1999/xlink" x="0px" y="0px"
	 viewBox="0 0 300 300" style="enable-background:new 0 0 300 300;" xml:space="preserve">
<g>
	<path d="M152.3,85.9v7h4.7v26.6l-4.7,0.2l-2.9-6.2c0,0,2.2-19.7-10.5-19.7c-12.7,0-10,18.7-10,18.7l-2.2,6.2h-4.2v-6.2h-14.2v6.5
		h-8.7v-4.8h4.8l-2.2-2.9v-4.8c0-1.5-1.1-2.7-2.5-3v-1.7h-2.1v1.7c-1.4,0.2-2.5,1.5-2.5,3v4.8l-2.2,2.9h4.8v4.8h-6.7L86.7,130v-21.8
		h0.7l11.2-22.3v-6.5l-11.2-6.5H82h-2.6h-5.4l-11.2,6.5v6.5l11.2,22.3v40h-7.4v8.8h-6.1v19.1h6.1v7.9H56.4v8.1H37.1V206H21.1v5.6
		h16.1h19.3V206h33.2c-0.3,1.2-0.4,2.4-0.4,3.7c0,9.6,7.8,17.5,17.5,17.5c9.6,0,17.5-7.8,17.5-17.5c0-1.3-0.1-2.5-0.4-3.7h45
		c-0.3,1.2-0.4,2.4-0.4,3.7c0,9.6,7.8,17.5,17.5,17.5c9.6,0,17.5-7.8,17.5-17.5c0-1.3-0.1-2.5-0.4-3.7h50.5v5.6h7.9v-19.3h-7.9v-8.1
		h-2.1c0-19.6,0-68.4,0-77.5c0-11.4,7.2-12.8,12.8-12.8c5.6,0,14.9,0,14.9,0v-7.9H152.3z M209.6,101.7h32.1v32.1h-32.1V101.7z
		 M167.2,101.7h32.1v32.1h-32.1V101.7z"/>
</g>
</svg>
