<?xml version="1.0" encoding="utf-8"?>
<!-- Generator: Adobe Illustrator 23.0.1, SVG Export Plug-In . SVG Version: 6.00 Build 0)  -->
<svg version="1.1" id="Layer_1" xmlns="http://www.w3.org/2000/svg" xmlns:xlink="http://www.w3.org/1999/xlink" x="0px" y="0px"
	 viewBox="0 0 300 300" style="enable-background:new 0 0 300 300;" xml:space="preserve">
<g>
	<path d="M918.1,155c0-6.1-5-11.2-11.2-11.2c-6.1,0-11.2,5-11.2,11.2s5,11.2,11.2,11.2C913.1,166.2,918.1,161.2,918.1,155z"/>
	<path d="M1003.8,123.6l-63-21.4V53.8c0-3.9-3.1-7-7-7H796.3c-3.9,0-7,3.1-7,7v53.3v19.2c0,0.9,0.2,1.8,0.5,2.6
		c-3.2,7.3-5.2,15.2-5.5,23.6c-0.8,20.9,8,39.6,22.3,52.4v53.4c0,4.6,3.7,8.4,8.4,8.4c4.6,0,8.4-3.7,8.4-8.4v-60.9l-5.6-5
		c-16.1-14.5-21.8-38.2-11.7-59.2h119.2c3.6,7.7,8,20.7,11.5,30.8c2.3,6.8,4.5,13.2,6.6,18.9h-19.6V222c0,3.1-2.5,5.6-5.6,5.6h-27.9
		v30.7c0,4.6,3.7,8.4,8.4,8.4c4.6,0,8.4-3.7,8.4-8.4v-13.9h11.2c12.3,0,22.3-10,22.3-22.3v-22.3h11.2c8.1,0,13.5-8.3,10.2-15.7
		c-4.9-11-10.8-30.8-16.7-46.5l26,8.8c0.7,0.2,1.5,0.4,2.3,0.4c0.8,0,1.5-0.1,2.2-0.4l28.2-9.5c2.8-1,4.8-3.6,4.8-6.6
		S1006.6,124.5,1003.8,123.6z M973.3,132.3l-32.6-11.1v-4.3l38.9,13.2L973.3,132.3z M803.3,60.8h123.5v39.3h-23.9V72.9
		c0-3.9-3.1-7-7-7s-7,3.1-7,7v27.2h-50.2V72.9c0-3.9-3.1-7-7-7s-7,3.1-7,7v27.2h-21.3V60.8z M926.7,114.1v5.2H803.3v-5.2H926.7z"/>
</g>
<g>
	<path d="M171.8,148.3c0-6.1-5-11.2-11.2-11.2c-6.1,0-11.2,5-11.2,11.2s5,11.2,11.2,11.2C166.7,159.5,171.8,154.5,171.8,148.3z"/>
	<path d="M257.4,116.9l-63-21.4V47.1c0-3.9-3.1-7-7-7H49.9c-3.9,0-7,3.1-7,7v53.3v19.2c0,0.9,0.2,1.8,0.5,2.6
		c-3.2,7.3-5.2,15.2-5.5,23.6c-0.8,20.9,8,39.6,22.3,52.4v53.4c0,4.6,3.7,8.4,8.4,8.4c4.6,0,8.4-3.7,8.4-8.4v-60.9l-5.6-5
		c-16.1-14.5-21.8-38.2-11.7-59.2h119.2c3.6,7.7,8,20.7,11.5,30.8c2.3,6.8,4.5,13.2,6.6,18.9h-19.6v39.1c0,3.1-2.5,5.6-5.6,5.6
		h-27.9v30.7c0,4.6,3.7,8.4,8.4,8.4c4.6,0,8.4-3.7,8.4-8.4v-13.9h11.2c12.3,0,22.3-10,22.3-22.3V193h11.2c8.1,0,13.5-8.3,10.2-15.7
		c-4.9-11-10.8-30.8-16.7-46.5l26,8.8c0.7,0.2,1.5,0.4,2.3,0.4c0.8,0,1.5-0.1,2.2-0.4l28.2-9.5c2.8-1,4.8-3.6,4.8-6.6
		S260.2,117.8,257.4,116.9z M227,125.6l-32.6-11.1v-4.3l38.9,13.2L227,125.6z M56.9,54.1h123.5v39.3h-23.9V66.2c0-3.9-3.1-7-7-7
		s-7,3.1-7,7v27.2H92.2V66.2c0-3.9-3.1-7-7-7s-7,3.1-7,7v27.2H56.9V54.1z M180.4,107.4v5.2H56.9v-5.2H180.4z"/>
</g>
</svg>
