<?xml version="1.0" encoding="utf-8"?>
<!-- Generator: Adobe Illustrator 23.0.1, SVG Export Plug-In . SVG Version: 6.00 Build 0)  -->
<svg version="1.1" id="Layer_1" xmlns="http://www.w3.org/2000/svg" xmlns:xlink="http://www.w3.org/1999/xlink" x="0px" y="0px"
	 viewBox="0 0 300 300" style="enable-background:new 0 0 300 300;" xml:space="preserve">
<g>
	<g>
		<path d="M252.9,252.6H50.8c-4.2,0-7.9-2.7-9.2-6.7c-1.3-4,0.1-8.3,3.5-10.8L247.2,89.4c2.9-2.1,6.8-2.4,10-0.8
			c3.2,1.7,5.3,5,5.3,8.6v145.7C262.5,248.3,258.2,252.6,252.9,252.6z M80.7,233.3h162.5V116.1L80.7,233.3z"/>
	</g>
	<g>
		<g>
			<path d="M89.4,95.2c-7.1,0-12.8-2.2-17.1-6.6c-4.3-4.4-6.4-10.2-6.4-17.5c0-7.3,2.1-13.2,6.4-17.6c4.3-4.4,10-6.6,17.1-6.6
				c7,0,12.7,2.2,17,6.5s6.4,10.3,6.4,17.8c0,7.2-2.1,13.1-6.4,17.5C102.1,93,96.5,95.2,89.4,95.2z M75.8,131.7l-6.9-10.2l69.7-49.7
				l6.9,9.7L75.8,131.7z M89.4,83c2.9,0,5.3-1.1,7.1-3.3c1.8-2.2,2.7-5.1,2.7-8.6c0-3.7-0.9-6.7-2.7-8.9c-1.8-2.2-4.2-3.3-7.1-3.3
				c-3,0-5.5,1.1-7.3,3.3c-1.8,2.2-2.7,5.2-2.7,8.9c0,3.5,0.9,6.4,2.7,8.6C84,81.9,86.4,83,89.4,83z M125.8,156.1
				c-7.1,0-12.8-2.2-17.1-6.6c-4.3-4.4-6.4-10.2-6.4-17.5c0-7.3,2.1-13.2,6.4-17.6c4.3-4.4,10-6.6,17.1-6.6c7,0,12.7,2.2,17,6.6
				c4.3,4.4,6.4,10.3,6.4,17.6c0,7.2-2.1,13.1-6.4,17.5C138.5,153.9,132.9,156.1,125.8,156.1z M125.8,143.9c2.9,0,5.3-1.1,7.1-3.3
				c1.8-2.2,2.7-5.1,2.7-8.6c0-3.6-0.9-6.6-2.7-8.8c-1.8-2.2-4.2-3.3-7.1-3.3c-3,0-5.5,1.1-7.3,3.3c-1.8,2.2-2.7,5.1-2.7,8.8
				c0,3.5,0.9,6.4,2.7,8.6C120.4,142.8,122.8,143.9,125.8,143.9z"/>
		</g>
	</g>
</g>
</svg>
