<?xml version="1.0" encoding="utf-8"?>
<!-- Generator: Adobe Illustrator 23.0.1, SVG Export Plug-In . SVG Version: 6.00 Build 0)  -->
<svg version="1.1" id="Layer_1" xmlns="http://www.w3.org/2000/svg" xmlns:xlink="http://www.w3.org/1999/xlink" x="0px" y="0px"
	 viewBox="0 0 300 300" style="enable-background:new 0 0 300 300;" xml:space="preserve">
<g>
	<polygon points="276,171.6 276,79.5 268.6,79.5 268.6,171.6 215.2,171.6 215.2,79.5 207.8,79.5 207.8,171.6 154.4,171.6 
		154.4,79.5 147,79.5 147,171.6 93.6,171.6 93.6,79.5 86.3,79.5 86.3,171.6 32.9,171.6 32.9,79.5 25.5,79.5 25.5,171.6 16.9,171.6 
		16.9,186.3 283.1,186.3 283.1,171.6 	"/>
	<ellipse transform="matrix(0.7071 -0.7071 0.7071 0.7071 -130.5811 96.2578)" cx="50.9" cy="205.8" rx="14.7" ry="14.7"/>
	<circle cx="89.2" cy="205.8" r="14.7"/>
	<ellipse transform="matrix(0.9732 -0.2298 0.2298 0.9732 -41.6336 53.9348)" cx="210.8" cy="205.8" rx="14.7" ry="14.7"/>
	<circle cx="249.1" cy="205.8" r="14.7"/>
</g>
</svg>
