<?xml version="1.0" encoding="utf-8"?>
<!-- Generator: Adobe Illustrator 23.0.1, SVG Export Plug-In . SVG Version: 6.00 Build 0)  -->
<svg version="1.1" id="Layer_1" xmlns="http://www.w3.org/2000/svg" xmlns:xlink="http://www.w3.org/1999/xlink" x="0px" y="0px"
	 viewBox="0 0 300 300" style="enable-background:new 0 0 300 300;" xml:space="preserve">
<g>
	<path d="M284.1,245.2H17.7c-3.3,0-5.9,2.7-5.9,5.9s2.7,5.9,5.9,5.9h266.4c3.3,0,5.9-2.7,5.9-5.9S287.3,245.2,284.1,245.2z"/>
	<path d="M289.2,139.1c1.6-2.9,0.6-6.5-2.2-8.1c-2.9-1.6-6.5-0.6-8.1,2.2c-16.7,29.3-41.6,49.6-67.5,63.7h-80.5
		c8.4-2.5,17.4-5.6,26.6-9.3c27.6-11.1,52-25.7,72.7-43.3c25.9-22.1,45.9-49.1,59.3-80.2c1.3-3-0.1-6.5-3.1-7.8
		c-3-1.3-6.5,0.1-7.8,3.1c-23.1,53.4-65.2,92.8-125.2,117c-31.5,12.7-60,17.7-74.3,19.5l18.6-51.2l41.1-7.3c2.6-0.5,4.8-2.3,5.7-4.8
		l15.7-43.3c0.9-2.5,0.4-5.3-1.3-7.4l-29.6-35.2c0,0,0,0,0,0c-0.2-0.2-0.4-0.5-0.6-0.7c0,0,0,0,0,0c-0.2-0.2-0.4-0.4-0.7-0.5
		c-0.1,0-0.1-0.1-0.2-0.1c-0.2-0.1-0.4-0.3-0.6-0.4c-0.1,0-0.1-0.1-0.2-0.1c-0.3-0.1-0.5-0.3-0.8-0.4c-0.3-0.1-0.6-0.2-0.9-0.3
		c-0.1,0-0.1,0-0.2,0c-0.2,0-0.5-0.1-0.7-0.1c-0.1,0-0.1,0-0.2,0c-0.3,0-0.5,0-0.8,0c0,0-0.1,0-0.1,0c-0.3,0-0.6,0-0.9,0.1
		c0,0-0.1,0-0.1,0l-45.3,8c-2.6,0.5-4.8,2.3-5.7,4.8l-15.7,43.3c-0.9,2.5-0.4,5.3,1.3,7.4l26.8,31.9l-20.8,57.3H17.7
		c-3.3,0-5.9,2.7-5.9,5.9s2.7,5.9,5.9,5.9h51.9c0,0,0,0,0,0c0,0,0,0,0,0h116.2c-11.3,4.5-22.3,7.9-32.5,10.6
		c-44.8,11.7-83.1,10.9-83.7,10.9c-0.1,0-0.1,0-0.2,0c-3.2,0-5.9,2.6-5.9,5.8c-0.1,3.3,2.5,6,5.8,6.1c0.2,0,1.1,0,2.6,0
		c9.6,0,43.9-0.8,84-11.2c21.4-5.6,41-13,58.5-22.2h69.5c3.3,0,5.9-2.7,5.9-5.9s-2.7-5.9-5.9-5.9h-49.5
		C257.9,181.2,276.3,161.8,289.2,139.1z M71,101.3l12.7-35.1l28.3-5l-22.5,62.1L71,101.3z"/>
</g>
</svg>
