<?xml version="1.0" encoding="utf-8"?>
<!-- Generator: Adobe Illustrator 23.0.1, SVG Export Plug-In . SVG Version: 6.00 Build 0)  -->
<svg version="1.1" id="Layer_1" xmlns="http://www.w3.org/2000/svg" xmlns:xlink="http://www.w3.org/1999/xlink" x="0px" y="0px"
	 viewBox="0 0 300 300" style="enable-background:new 0 0 300 300;" xml:space="preserve">
<g>
	<g>
		<path d="M192.3,222.3c-3.6,8.7-11.1,14.2-19.7,14.2h-59.1l0,18c0,6-4.3,10.8-9.7,10.8h0c-5.4,0-9.7-4.8-9.7-10.8l0-18H34.8
			c-8.5,0-16.1-5.4-19.6-14.2c-3.7-8.9-2.4-19,3.4-26.4L33,177.4c-2.7-2.2-4.9-5.2-6.4-8.8c-3.4-8-2.2-17.2,2.9-24l12.6-16.4
			c-1.8-1.9-3.3-4.1-4.4-6.7c-2.8-7.1-1.6-15.1,3.2-20.9l48.7-58.8c3.5-4.3,8.7-6.8,14.1-6.8h0c5.4,0,10.6,2.5,14.1,6.8l48.7,58.8
			c4.8,5.8,6,13.8,3.2,20.9c-1,2.6-2.5,4.9-4.4,6.8l12.6,16.4c5.2,6.8,6.3,16,2.9,24.1c-1.5,3.6-3.7,6.5-6.4,8.8l14.5,18.5
			C194.7,203.3,196,213.4,192.3,222.3z M172.7,214.8c0.9,0,1.6-0.5,2-1.5c0.3-0.7,0.6-2-0.4-3.3l-38.8-49.8h26.7L127.6,112h22.1
			l-46.1-55.7L57.8,112H80l-34.6,48.2h26.8l-38.8,49.8c-1,1.3-0.7,2.6-0.4,3.3c0.4,1,1.1,1.5,2,1.5H172.7z"/>
	</g>
	<g>
		<path d="M203.3,113.9c-3.9,3.5-7.5,7-11.5,10.2c-2.9,2.3-4.6,5.1-5.3,8.8c-0.7,3.9-1.9,7.7-2.9,11.6c5.6,1.4,11,2.9,16.7,4.3
			c-1.5,5.6-2.9,11.1-4.3,16.7c5.6,1.5,11.1,2.9,16.7,4.3c-1.4,5.6-2.9,11.1-4.3,16.7c5.6,1.4,11.1,2.9,16.7,4.3
			c-1.5,5.6-2.9,11.1-4.3,16.8c0.8,0.2,1.4,0.4,2,0.5c4.9,1.3,9.8,2.6,14.8,3.8c0.5,0.1,1.4,0,1.8-0.3c9.4-7.8,18.8-15.6,28.2-23.4
			c0.2-0.1,0.3-0.3,0.5-0.5C246.4,163.1,224.9,138.6,203.3,113.9z"/>
		<path d="M286.8,210c4.1,5.1,3.2,12.1-1.6,16.2c-8.7,7.4-17.4,14.7-26.2,22c-5.2,4.3-12.6,3.5-16.9-1.7c-2-2.5-4.1-5-6-7.6
			c-0.3-0.5-0.6-1.1-0.6-1.7c0.3-4.8,0.7-9.6,1.1-14.3c0.1-0.6,0.4-1.4,0.9-1.8c7.1-6,14.2-12,21.2-18c4.2-3.6,8.5-7.2,12.9-10.9
			C276.8,198.2,282,204,286.8,210z"/>
	</g>
</g>
</svg>
